# xmcd
#
# Track frame offsets:
#	150
#	14605
#	49732
#	63907
#
# Disc length: 1252 seconds
#
# Revision: 5
# Processed by: cddbd v1.5.2PL0 Copyright (c) Steve Scherf et al.
# Submitted via: EZCDAudioConverter 1.3.4.1
#
DISCID=2e04e204
DTITLE=Yello - Do It
DYEAR=1994
DGENRE=
TTITLE0=Do It [Single]
TTITLE1=Do It [Marky P. and Teri B. Dub]
TTITLE2=Do It [Instrumental]
TTITLE3=Vicious Games [Belly Trippin' Trance Mix]
EXTD=
EXTT0=
EXTT1=
EXTT2=
EXTT3=
PLAYORDER=
